<svg width="105" height="105" viewBox="0 0 105 105" fill="none" xmlns="http://www.w3.org/2000/svg">
<circle cx="52.5" cy="52.5" r="52.5" fill="#7C1111"/>
<path d="M56.4647 43.73C56.4647 43.95 56.2447 44.2983 55.8047 44.775C55.2547 45.3617 54.8514 45.93 54.5947 46.48C52.4314 50.55 50.2497 54.62 48.0497 58.69C44.3097 65.95 42.4397 70.4783 42.4397 72.275C42.4397 73.5217 42.9164 74.145 43.8697 74.145C44.9697 74.145 46.363 73.4483 48.0497 72.055C49.773 70.6617 50.6164 69.965 50.5797 69.965C50.6897 69.965 50.763 70.02 50.7997 70.13C50.7997 70.57 49.9014 71.4683 48.1047 72.825C46.1247 74.2917 44.5114 75.025 43.2647 75.025C41.5047 75.025 40.6247 74.1083 40.6247 72.275C40.6247 70.4417 42.0364 66.9033 44.8597 61.66C46.9497 57.7733 49.0397 53.8867 51.1297 50C46.2897 57.1867 41.4314 63.1267 36.5547 67.82C32.008 72.1467 28.653 74.31 26.4897 74.31C24.583 74.31 23.6297 73.4483 23.6297 71.725C23.6297 70.295 24.8397 67.6733 27.2597 63.86C30.303 59.13 32.2647 55.665 33.1447 53.465C32.1914 53.5383 31.403 53.575 30.7797 53.575C25.8664 53.575 21.503 51.815 17.6897 48.295C14.0964 44.9583 12.2997 41.4383 12.2997 37.735C12.2997 35.205 13.088 33.2067 14.6647 31.74C16.0947 30.42 17.9464 29.76 20.2197 29.76C24.253 29.76 27.9564 31.41 31.3297 34.71C34.7764 38.12 36.4997 41.9517 36.4997 46.205C36.4997 48.0017 36.0597 50.0917 35.1797 52.475C38.9564 51.705 41.5047 50.0733 42.8247 47.58C42.898 47.5433 42.9714 47.525 43.0447 47.525C43.228 47.525 43.3197 47.6167 43.3197 47.8C43.3197 48.3867 42.623 49.23 41.2297 50.33C39.4697 51.7233 37.3614 52.6767 34.9047 53.19C34.0247 55.2433 32.063 58.7267 29.0197 63.64C26.6364 67.49 25.4447 70.13 25.4447 71.56C25.4447 72.8433 25.9947 73.485 27.0947 73.485C29.6247 73.485 34.483 69.2867 41.6697 60.89C47.573 53.9233 51.808 48.3133 54.3747 44.06C54.7047 43.51 55.1997 43.235 55.8597 43.235C56.263 43.235 56.4647 43.4 56.4647 43.73ZM34.6297 46.755C34.6297 42.5383 33.2547 38.7983 30.5047 35.535C27.6447 32.125 24.1797 30.42 20.1097 30.42C15.893 30.42 13.7847 32.8033 13.7847 37.57C13.7847 41.8967 15.6914 45.6 19.5047 48.68C22.988 51.5033 26.6914 52.915 30.6147 52.915C31.898 52.915 32.833 52.8783 33.4197 52.805C34.2264 50.5683 34.6297 48.5517 34.6297 46.755ZM97.0044 33.225C97.0044 34.2883 96.2711 35.1133 94.8044 35.7C93.5211 36.2133 91.9261 36.47 90.0194 36.47C89.6161 36.47 87.2144 36.1033 82.8144 35.37C79.9544 37.24 75.2611 40.045 68.7344 43.785C69.0277 44.9583 69.8894 45.9483 71.3194 46.755C72.7494 47.5617 74.3077 47.965 75.9944 47.965C76.5811 47.965 77.1494 47.91 77.6994 47.8C77.8094 47.7633 77.9744 47.745 78.1944 47.745C78.4877 47.745 78.6344 47.91 78.6344 48.24C78.6344 48.6067 78.3594 48.79 77.8094 48.79C75.8294 48.79 73.1161 49.3583 69.6694 50.495C65.3794 51.8883 61.8961 53.685 59.2194 55.885C55.7727 58.6717 54.0494 61.8433 54.0494 65.4C54.0494 67.6733 54.7094 69.6533 56.0294 71.34C57.6061 73.32 59.7694 74.31 62.5194 74.31C66.2961 74.31 69.9811 72.77 73.5744 69.69C73.8311 69.47 74.0327 69.36 74.1794 69.36C74.3627 69.36 74.4544 69.4517 74.4544 69.635C74.4544 69.8183 74.2711 70.0567 73.9044 70.35C72.9877 71.2667 71.7411 72.1467 70.1644 72.99C67.4877 74.42 64.7377 75.135 61.9144 75.135C55.3877 75.135 52.1244 72 52.1244 65.73C52.1244 61.99 53.9944 58.6533 57.7344 55.72C60.3377 53.63 63.8027 51.7967 68.1294 50.22C71.8694 48.8633 73.7394 48.2583 73.7394 48.405L72.2544 48.02C71.0811 47.7267 70.1094 47.36 69.3394 46.92C68.1661 46.2967 67.3961 45.5083 67.0294 44.555C60.5027 47.5983 53.7561 49.12 46.7894 49.12C45.9827 49.12 45.5794 48.955 45.5794 48.625C45.6527 48.2217 45.9461 48.02 46.4594 48.02C53.4627 48.02 60.2461 46.5717 66.8094 43.675V43.18C66.8094 41.0533 68.1844 39.0733 70.9344 37.24C73.8677 35.26 77.2961 34.27 81.2194 34.27C81.3661 34.27 82.0444 34.325 83.2544 34.435C87.1777 32.1983 90.4961 31.08 93.2094 31.08C95.7394 31.08 97.0044 31.795 97.0044 33.225ZM96.1794 33.335C96.1794 32.4183 95.0244 31.96 92.7144 31.96C90.2577 31.96 87.4161 32.84 84.1894 34.6C87.0494 35.2233 89.3777 35.535 91.1744 35.535C92.4577 35.535 93.5761 35.3517 94.5294 34.985C95.6294 34.5817 96.1794 34.0317 96.1794 33.335ZM81.8794 35.26C81.1094 35.1133 80.3211 35.04 79.5144 35.04C76.5811 35.04 74.0877 35.81 72.0344 37.35C69.9811 38.8533 68.8444 40.6867 68.6244 42.85C70.7511 41.86 73.1161 40.5767 75.7194 39C77.7727 37.7533 79.8261 36.5067 81.8794 35.26Z" fill="#FCF5EF"/>
</svg>
